<?xml version="1.0" encoding="UTF-8" standalone="no"?>
<!DOCTYPE svg PUBLIC "-//W3C//DTD SVG 1.1//EN" "http://www.w3.org/Graphics/SVG/1.1/DTD/svg11.dtd">
<svg version="1.1" xmlns="http://www.w3.org/2000/svg" xmlns:xlink="http://www.w3.org/1999/xlink" preserveAspectRatio="xMidYMid meet" viewBox="0 0 640 640" width="640" height="640"><defs><path d="M219.8 258.37C203.61 258.37 190.45 269.56 190.45 283.31C190.45 286.07 190.45 299.91 190.45 324.82L210 324.82C210 299.91 210 286.07 210 283.31C210 278.72 214.39 274.98 219.8 274.98C220.44 274.98 225.63 274.98 226.28 274.98C231.68 274.98 236.06 278.71 236.06 283.31C236.06 286.07 236.06 299.91 236.06 324.82L255.62 324.82C255.62 299.91 255.62 286.07 255.62 283.31C255.62 269.56 242.46 258.37 226.28 258.37C226.28 258.37 220.44 258.37 219.8 258.37Z" id="bvCk1QwLU"></path><path d="M219.8 441.1C203.61 441.1 190.45 452.29 190.45 466.03C190.45 468.8 190.45 482.64 190.45 507.55L210 507.55C210 482.64 210 468.8 210 466.03C210 461.45 214.39 457.71 219.8 457.71C220.44 457.71 225.63 457.71 226.28 457.71C231.68 457.71 236.06 461.44 236.06 466.03C236.06 468.8 236.06 482.64 236.06 507.55L255.62 507.55C255.62 482.64 255.62 468.8 255.62 466.03C255.62 452.29 242.46 441.1 226.28 441.1C226.28 441.1 220.44 441.1 219.8 441.1Z" id="adjbgTrxq"></path><path d="M219.8 346.97C203.61 346.97 190.45 358.15 190.45 371.9C190.45 374.67 190.45 388.51 190.45 413.42L210 413.42C210 388.51 210 374.67 210 371.9C210 367.31 214.39 363.58 219.8 363.58C220.44 363.58 225.63 363.58 226.28 363.58C231.68 363.58 236.06 367.31 236.06 371.9C236.06 374.67 236.06 388.51 236.06 413.42L255.62 413.42C255.62 388.51 255.62 374.67 255.62 371.9C255.62 358.16 242.46 346.97 226.28 346.97C226.28 346.97 220.44 346.97 219.8 346.97Z" id="e91OF8GTE"></path><path d="M317.55 258.37C301.38 258.37 288.21 269.56 288.21 283.31C288.21 286.07 288.21 299.91 288.21 324.82L307.76 324.82C307.76 299.91 307.76 286.07 307.76 283.31C307.76 278.72 312.15 274.98 317.55 274.98C318.2 274.98 323.38 274.98 324.03 274.98C329.43 274.98 333.83 278.71 333.83 283.31C333.83 286.07 333.83 299.91 333.83 324.82L353.38 324.82C353.38 299.91 353.38 286.07 353.38 283.31C353.39 269.56 340.22 258.37 324.03 258.37C324.03 258.37 318.2 258.37 317.55 258.37Z" id="eE9KPlFGU"></path><path d="M317.55 346.97C301.38 346.97 288.21 358.15 288.21 371.9C288.21 374.67 288.21 388.51 288.21 413.42L307.76 413.42C307.76 388.51 307.76 374.67 307.76 371.9C307.76 367.31 312.15 363.58 317.55 363.58C318.2 363.58 323.38 363.58 324.03 363.58C329.43 363.58 333.83 367.31 333.83 371.9C333.83 374.67 333.83 388.51 333.83 413.42L353.38 413.42C353.38 388.51 353.38 374.67 353.38 371.9C353.39 358.16 340.22 346.97 324.03 346.97C324.03 346.97 318.2 346.97 317.55 346.97Z" id="b7yAiRNMEf"></path><path d="M134.73 177.27L164.56 188.1L161.68 160.63L183.01 139.87L151.38 133.71L134.73 110.06L118.07 133.71L86.44 139.87L107.77 160.63L104.89 188.1L134.73 177.27ZM130.57 148.32L134.73 142.41L138.89 148.32L146.79 149.85L141.46 155.05L142.19 161.91L134.73 159.2L127.27 161.91L127.99 155.05L122.66 149.85L130.57 148.32Z" id="a11mA3cbZG"></path><path d="M191.27 142.06L221.12 131.21L235.93 136.59L250.94 141.69L248.06 114.58L269.43 93.82L237.77 87.68L221.12 63.99L204.48 87.68L172.81 93.82L194.18 114.58L191.27 142.06ZM216.97 102.3L221.12 96.4L225.28 102.3L233.16 103.82L227.84 109L228.57 115.84L221.13 113.14L213.69 115.84L214.42 109L209.1 103.82L216.97 102.3Z" id="d18ko3Imrb"></path><path d="M291.59 126.55L321.46 115.64L351.34 126.54L348.38 99.02L369.39 78.16L338.1 72.14L321.46 48.4L304.83 72.14L273.11 78.24L294.54 99.02L291.59 126.55ZM317.33 86.76L321.47 80.87L325.59 86.76L333.47 88.28L328.15 93.43L328.89 100.27L321.46 97.57L314.04 100.27L314.78 93.43L309.46 88.28L317.33 86.76Z" id="b11IWtIn1d"></path><path d="M391.54 143.66L421.44 132.73L451.34 143.66L448.35 116.13L469.81 95.36L438.08 89.25L421.44 65.49L404.82 89.25L373.09 95.36L394.55 116.13L391.54 143.66ZM417.33 103.89L421.45 98L425.57 103.89L433.43 105.4L428.11 110.54L428.85 117.36L421.44 114.65L414.04 117.36L414.78 110.54L409.46 105.4L417.33 103.89Z" id="a1ycZvudDu"></path><path d="M479.96 163.48L476.93 191.04L506.86 180.08L536.77 191.04L533.74 163.48L555.26 142.7L523.46 136.62L506.85 112.8L490.23 136.62L458.44 142.7L479.96 163.48ZM502.77 151.26L506.87 145.38L510.97 151.26L518.81 152.76L513.5 157.89L514.25 164.7L506.87 161.99L499.48 164.7L500.23 157.89L494.92 152.76L502.77 151.26Z" id="atID8fAz"></path><path d="M490.24 241.75L516.31 241.75L516.31 225.14L457.64 225.13L457.64 180.85L470.73 180.85L470.73 164.23L457.64 164.24L170.86 164.24L170.86 180.85L183.93 180.85L183.93 225.14L125.28 225.14L125.28 241.75L151.35 241.75L151.35 551.84L105.73 551.84L105.73 568.46C308.96 568.46 421.87 568.46 444.45 568.46C465.35 601.71 473.74 601.76 477.5 601.76C482.62 601.76 496.2 601.76 537.99 518.83C547.57 499.82 578.84 435.46 578.84 405.46C578.83 361.65 540.1 325.45 490.23 320.11C490.23 320.11 490.24 293.99 490.24 241.75ZM203.48 180.84L438.09 180.84L438.09 225.13L203.48 225.13L203.48 180.84ZM294.72 551.83L294.72 452.16L353.38 452.16L353.38 551.82L294.72 551.83ZM372.93 435.56L275.17 435.56L275.17 551.83L170.89 551.83L170.89 241.75L470.68 241.75C470.68 288.48 470.68 314.44 470.68 319.64C463.96 320.02 457.42 320.96 451.12 322.41C451.12 318.5 451.12 287.21 451.12 283.3C451.12 269.55 437.95 258.36 421.77 258.36C421.12 258.36 415.94 258.36 415.29 258.36C399.12 258.36 385.95 269.55 385.95 283.3C385.95 286.06 385.95 299.9 385.95 324.81L405.51 324.81C405.51 299.9 405.51 286.06 405.51 283.3C405.51 278.71 409.9 274.97 415.29 274.97C415.94 274.97 421.12 274.97 421.77 274.97C427.18 274.97 431.57 278.7 431.57 283.3C431.57 286.06 431.57 299.9 431.57 324.81C438.01 324.81 441.58 324.81 442.3 324.81C403.76 337 376.18 368.5 376.18 405.44C376.18 435.45 407.44 499.81 417.03 518.82C423.54 531.73 429.35 542.63 434.57 551.83C430.46 551.83 409.91 551.83 372.93 551.83L372.93 435.56ZM395.74 405.45C395.74 367.13 432.42 335.96 477.51 335.96C522.61 335.96 559.29 367.13 559.29 405.45C559.28 442.28 498.39 561.19 477.51 583.01C456.63 561.19 395.74 442.28 395.74 405.45Z" id="b2UbThXP0"></path><path d="M429.59 405.45C429.59 427.9 451.09 446.17 477.52 446.17C503.95 446.17 525.45 427.9 525.45 405.45C525.45 382.99 503.95 364.72 477.52 364.72C451.08 364.72 429.59 382.99 429.59 405.45ZM449.14 405.44C449.14 392.14 461.87 381.33 477.52 381.33C493.16 381.33 505.9 392.14 505.9 405.44C505.9 418.73 493.17 429.55 477.52 429.55C461.86 429.55 449.14 418.73 449.14 405.44Z" id="afF2EWsq4"></path><path d="M-11.68 842.31C-12.32 842.77 -12.99 843.12 -13.69 843.35C-14.38 843.59 -15.11 843.71 -15.86 843.71C-18.12 843.71 -19.9 842.84 -21.22 841.08C-22.54 839.32 -23.2 836.93 -23.2 833.92C-23.2 830.91 -22.54 828.52 -21.22 826.77C-19.9 825 -18.12 824.12 -15.86 824.12C-15.11 824.12 -14.38 824.24 -13.69 824.48C-12.99 824.71 -12.32 825.06 -11.68 825.52C-11.68 825.91 -11.68 829.04 -11.68 829.43C-12.33 828.82 -12.97 828.37 -13.6 828.08C-14.23 827.79 -14.89 827.65 -15.58 827.65C-16.83 827.65 -17.81 828.21 -18.52 829.33C-19.23 830.43 -19.58 831.97 -19.58 833.92C-19.58 835.87 -19.23 837.4 -18.52 838.52C-17.81 839.63 -16.83 840.18 -15.58 840.18C-14.89 840.18 -14.23 840.05 -13.6 839.76C-12.97 839.47 -12.33 839.02 -11.68 838.4C-11.68 839.19 -11.68 841.53 -11.68 842.31Z" id="bL7B47jME"></path><path d="M-1.39 833.04C-1.68 832.86 -1.97 832.72 -2.25 832.64C-2.53 832.54 -2.81 832.49 -3.09 832.49C-3.92 832.49 -4.57 832.87 -5.02 833.62C-5.47 834.36 -5.69 835.43 -5.69 836.81C-5.69 837.25 -5.69 839.43 -5.69 843.35L-8.93 843.35L-8.93 829.18L-5.69 829.18C-5.69 830.58 -5.69 831.35 -5.69 831.51C-5.27 830.58 -4.8 829.91 -4.26 829.48C-3.72 829.05 -3.07 828.83 -2.31 828.83C-2.2 828.83 -2.08 828.84 -1.96 828.86C-1.83 828.87 -1.64 828.9 -1.4 828.94C-1.4 829.76 -1.39 832.22 -1.39 833.04Z" id="b2jVD60oq"></path><path d="M10.36 837.52C5.8 837.52 3.27 837.52 2.76 837.52C2.85 838.59 3.12 839.38 3.59 839.91C4.06 840.44 4.72 840.7 5.57 840.7C6.25 840.7 6.95 840.57 7.66 840.28C8.38 839.99 9.12 839.57 9.87 839C9.87 839.35 9.87 842.13 9.87 842.48C9.1 842.89 8.34 843.19 7.57 843.39C6.8 843.6 6.04 843.71 5.27 843.71C3.43 843.71 2 843.06 0.98 841.76C-0.03 840.46 -0.54 838.63 -0.54 836.28C-0.54 833.97 -0.04 832.15 0.96 830.83C1.96 829.5 3.34 828.83 5.08 828.83C6.68 828.83 7.96 829.51 8.92 830.86C9.88 832.2 10.36 833.99 10.36 836.22C10.36 836.22 10.36 836.66 10.36 837.52ZM7.02 834.72C7.02 833.86 6.84 833.17 6.48 832.65C6.12 832.12 5.65 831.86 5.07 831.86C4.44 831.86 3.93 832.1 3.54 832.59C3.15 833.08 2.9 833.79 2.8 834.72C3.65 834.72 6.18 834.72 7.02 834.72Z" id="bSj15MQXb"></path><path d="M17.36 836.97C16.68 836.97 16.17 837.13 15.83 837.45C15.49 837.77 15.32 838.24 15.32 838.87C15.32 839.45 15.46 839.9 15.74 840.23C16.01 840.54 16.39 840.7 16.88 840.7C17.49 840.7 18.01 840.4 18.42 839.79C18.84 839.18 19.05 838.41 19.05 837.49C19.05 837.46 19.05 837.29 19.05 836.97C18.15 836.97 17.59 836.97 17.36 836.97ZM22.31 843.35L19.05 843.35C19.05 842.09 19.05 841.39 19.05 841.25C18.62 842.11 18.12 842.74 17.58 843.13C17.03 843.51 16.37 843.71 15.59 843.71C14.54 843.71 13.69 843.29 13.03 842.44C12.37 841.58 12.05 840.47 12.05 839.1C12.05 837.44 12.45 836.23 13.27 835.46C14.09 834.67 15.38 834.28 17.13 834.28C17.26 834.28 17.9 834.28 19.05 834.28C19.05 834.07 19.05 833.95 19.05 833.92C19.05 833.21 18.85 832.69 18.44 832.36C18.03 832.03 17.4 831.86 16.54 831.86C15.84 831.86 15.2 831.95 14.6 832.14C14 832.34 13.45 832.63 12.94 833.01C12.94 832.67 12.94 829.9 12.94 829.56C13.63 829.33 14.32 829.15 15.02 829.02C15.73 828.9 16.43 828.83 17.13 828.83C18.96 828.83 20.28 829.34 21.09 830.35C21.91 831.36 22.31 832.99 22.31 835.27C22.31 835.27 22.31 837.96 22.31 843.35Z" id="apgHyOk1"></path><path d="M28.89 825.16L28.89 829.18L32.23 829.18L32.23 832.42L28.89 832.42C28.89 836.03 28.89 838.03 28.89 838.43C28.89 839.09 28.98 839.53 29.17 839.76C29.35 839.99 29.72 840.11 30.27 840.11C30.39 840.11 30.94 840.11 31.94 840.11L31.94 843.35C30.28 843.35 29.35 843.35 29.17 843.35C27.88 843.35 26.97 842.98 26.43 842.24C25.9 841.48 25.63 840.22 25.63 838.43C25.63 838.03 25.63 836.03 25.63 832.42L24.03 832.42L24.03 829.18L25.63 829.18L25.63 825.16L28.89 825.16Z" id="a2nua46eSu"></path><path d="M44.35 837.52C39.79 837.52 37.26 837.52 36.76 837.52C36.84 838.59 37.11 839.38 37.59 839.91C38.05 840.44 38.72 840.7 39.56 840.7C40.25 840.7 40.95 840.57 41.66 840.28C42.37 839.99 43.11 839.57 43.86 839C43.86 839.35 43.86 842.13 43.86 842.48C43.1 842.89 42.33 843.19 41.56 843.39C40.8 843.6 40.03 843.71 39.26 843.71C37.43 843.71 36 843.06 34.98 841.76C33.96 840.46 33.45 838.63 33.45 836.28C33.45 833.97 33.95 832.15 34.95 830.83C35.95 829.5 37.33 828.83 39.08 828.83C40.67 828.83 41.95 829.51 42.91 830.86C43.87 832.2 44.35 833.99 44.35 836.22C44.35 836.22 44.35 836.66 44.35 837.52ZM41.02 834.72C41.02 833.86 40.83 833.17 40.48 832.65C40.12 832.12 39.65 831.86 39.07 831.86C38.44 831.86 37.93 832.1 37.53 832.59C37.14 833.08 36.89 833.79 36.8 834.72C37.64 834.72 40.17 834.72 41.02 834.72Z" id="faynGsfzE"></path><path d="M53.71 823.66L56.97 823.66L56.97 843.35L53.71 843.35C53.71 842.12 53.71 841.43 53.71 841.3C53.27 842.13 52.78 842.75 52.24 843.13C51.7 843.51 51.07 843.71 50.36 843.71C49.11 843.71 48.09 843.02 47.29 841.63C46.48 840.24 46.08 838.46 46.08 836.28C46.08 834.09 46.48 832.3 47.29 830.92C48.09 829.53 49.11 828.83 50.36 828.83C51.07 828.83 51.69 829.03 52.23 829.43C52.77 829.82 53.27 830.43 53.71 831.25C53.71 831.25 53.71 828.72 53.71 823.66ZM53.16 839.37C53.52 838.66 53.71 837.63 53.71 836.28C53.71 834.93 53.52 833.9 53.16 833.2C52.79 832.49 52.26 832.13 51.57 832.13C50.88 832.13 50.35 832.49 49.99 833.2C49.62 833.9 49.44 834.93 49.44 836.28C49.44 837.63 49.62 838.66 49.99 839.37C50.35 840.08 50.88 840.43 51.57 840.43C52.26 840.43 52.79 840.08 53.16 839.37Z" id="e1RQgDOuZ"></path><path d="M73.56 839.37C73.92 838.66 74.11 837.63 74.11 836.28C74.11 834.93 73.92 833.9 73.56 833.2C73.19 832.49 72.66 832.13 71.96 832.13C71.26 832.13 70.73 832.49 70.35 833.2C69.99 833.92 69.81 834.94 69.81 836.28C69.81 837.62 69.99 838.65 70.35 839.36C70.73 840.07 71.26 840.43 71.96 840.43C72.66 840.43 73.19 840.08 73.56 839.37ZM69.81 831.25C70.25 830.43 70.75 829.82 71.29 829.43C71.83 829.03 72.46 828.83 73.16 828.83C74.42 828.83 75.45 829.53 76.25 830.92C77.05 832.3 77.45 834.09 77.45 836.28C77.45 838.46 77.05 840.24 76.25 841.63C75.45 843.02 74.42 843.71 73.16 843.71C72.46 843.71 71.83 843.51 71.29 843.13C70.75 842.74 70.25 842.13 69.81 841.3C69.81 841.43 69.81 842.12 69.81 843.35L66.56 843.35L66.56 823.66L69.81 823.66C69.81 827.71 69.81 830.24 69.81 831.25Z" id="czuBDR549"></path><path d="M78.52 829.18L81.76 829.18L84.49 838.8L86.81 829.18L90.06 829.18C87.5 838.49 86.07 843.66 85.79 844.69C85.36 846.26 84.86 847.36 84.29 847.99C83.71 848.63 82.96 848.94 82.03 848.94C81.9 848.94 81.27 848.94 80.14 848.94L80.14 845.97C80.75 845.97 81.09 845.97 81.16 845.97C81.71 845.97 82.11 845.84 82.36 845.59C82.61 845.35 82.81 844.91 82.95 844.29C82.96 844.26 82.99 844.13 83.04 843.9L78.52 829.18Z" id="baBbdoXy"></path><path d="M98.56 824.47L102.46 824.47L107.38 837.42L107.38 824.47L110.68 824.47L110.68 843.35L106.79 843.35L101.87 830.4L101.87 843.35L98.56 843.35L98.56 824.47Z" id="a1DixGEeHb"></path><path d="M113.95 829.18L117.2 829.18L117.2 843.35L113.95 843.35L113.95 829.18ZM113.95 823.66L117.2 823.66L117.2 827.36L113.95 827.36L113.95 823.66Z" id="a2J95sislI"></path><path d="M120.32 823.66L123.56 823.66L123.56 834.39L127.29 829.18L131.06 829.18L126.11 835.69L131.46 843.35L127.52 843.35L123.56 837.44L123.56 843.35L120.32 843.35L120.32 823.66Z" id="c3hUobMSK"></path><path d="M132.66 829.18L135.91 829.18L135.91 843.35L132.66 843.35L132.66 829.18ZM132.66 823.66L135.91 823.66L135.91 827.36L132.66 827.36L132.66 823.66Z" id="cvefzL2J"></path><path d="M142.57 825.16L142.57 829.18L145.92 829.18L145.92 832.42L142.57 832.42C142.57 836.03 142.57 838.03 142.57 838.43C142.57 839.09 142.67 839.53 142.85 839.76C143.04 839.99 143.41 840.11 143.96 840.11C144.07 840.11 144.63 840.11 145.63 840.11L145.63 843.35C143.96 843.35 143.04 843.35 142.85 843.35C141.57 843.35 140.66 842.98 140.12 842.24C139.58 841.48 139.32 840.22 139.32 838.43C139.32 838.03 139.32 836.03 139.32 832.42L137.71 832.42L137.71 829.18L139.32 829.18L139.32 825.16L142.57 825.16Z" id="d1FcIL887U"></path><path d="M152.45 836.97C151.77 836.97 151.26 837.13 150.92 837.45C150.58 837.77 150.41 838.24 150.41 838.87C150.41 839.45 150.55 839.9 150.82 840.23C151.1 840.54 151.48 840.7 151.96 840.7C152.58 840.7 153.09 840.4 153.51 839.79C153.93 839.18 154.14 838.41 154.14 837.49C154.14 837.46 154.14 837.29 154.14 836.97C153.24 836.97 152.68 836.97 152.45 836.97ZM157.4 843.35L154.14 843.35C154.14 842.09 154.14 841.39 154.14 841.25C153.7 842.11 153.21 842.74 152.67 843.13C152.12 843.51 151.46 843.71 150.68 843.71C149.63 843.71 148.78 843.29 148.12 842.44C147.46 841.58 147.14 840.47 147.14 839.1C147.14 837.44 147.54 836.23 148.36 835.46C149.18 834.67 150.47 834.28 152.22 834.28C152.35 834.28 152.99 834.28 154.14 834.28C154.14 834.07 154.14 833.95 154.14 833.92C154.14 833.21 153.93 832.69 153.53 832.36C153.12 832.03 152.49 831.86 151.63 831.86C150.93 831.86 150.29 831.95 149.68 832.14C149.09 832.34 148.54 832.63 148.03 833.01C148.03 832.67 148.03 829.9 148.03 829.56C148.72 829.33 149.41 829.15 150.11 829.02C150.81 828.9 151.52 828.83 152.22 828.83C154.05 828.83 155.37 829.34 156.18 830.35C156.99 831.36 157.4 832.99 157.4 835.27C157.4 835.27 157.4 837.96 157.4 843.35Z" id="e35LyT3sd"></path><path d="M167.04 824.47L170.52 824.47L170.52 831.35L175.55 824.47L179.6 824.47L173.09 833.4L180.28 843.35L175.91 843.35L170.52 835.9L170.52 843.35L167.04 843.35L167.04 824.47Z" id="e75f3dF2Z"></path><path d="M184.46 833.16C184.08 833.88 183.89 834.92 183.89 836.28C183.89 837.64 184.08 838.68 184.46 839.4C184.84 840.12 185.39 840.47 186.11 840.47C186.81 840.47 187.35 840.12 187.72 839.4C188.1 838.68 188.29 837.64 188.29 836.28C188.29 834.92 188.1 833.88 187.72 833.16C187.35 832.43 186.81 832.07 186.11 832.07C185.39 832.07 184.84 832.43 184.46 833.16ZM190.2 830.81C191.18 832.13 191.67 833.95 191.67 836.28C191.67 838.6 191.18 840.42 190.2 841.74C189.22 843.06 187.85 843.71 186.11 843.71C184.35 843.71 182.98 843.06 182 841.74C181.01 840.42 180.51 838.6 180.51 836.28C180.51 833.95 181.01 832.13 182 830.81C182.98 829.49 184.35 828.83 186.11 828.83C187.85 828.83 189.22 829.49 190.2 830.81Z" id="aB7L6pIEF"></path><path d="M193.53 829.18L202.39 829.18L202.39 832.35L197.04 840.11L202.39 840.11L202.39 843.35L193.31 843.35L193.31 840.18L198.66 832.42L193.53 832.42L193.53 829.18Z" id="g2PJNyIUyB"></path><path d="M204.84 829.18L208.08 829.18L208.08 843.35L204.84 843.35L204.84 829.18ZM204.84 823.66L208.08 823.66L208.08 827.36L204.84 827.36L204.84 823.66Z" id="ayj2uVRRF"></path><path d="M221.41 843.35L218.14 843.35C218.14 839.38 218.14 837.18 218.14 836.74C218.14 835.52 218.12 834.67 218.08 834.21C218.04 833.75 217.97 833.41 217.88 833.19C217.75 832.9 217.58 832.67 217.36 832.51C217.14 832.34 216.9 832.26 216.62 832.26C215.94 832.26 215.41 832.63 215.03 833.36C214.64 834.08 214.45 835.09 214.45 836.38C214.45 836.84 214.45 839.17 214.45 843.35L211.2 843.35L211.2 829.18L214.45 829.18C214.45 830.42 214.45 831.11 214.45 831.25C214.94 830.43 215.45 829.82 216 829.43C216.55 829.03 217.16 828.83 217.82 828.83C219 828.83 219.89 829.34 220.5 830.35C221.1 831.36 221.41 832.81 221.41 834.72C221.41 834.72 221.41 837.6 221.41 843.35Z" id="b4qwYHhS6"></path><path d="M-15.89 849.57L-15.89 852.54C-16.96 852.54 -17.56 852.54 -17.68 852.54C-18.13 852.54 -18.45 852.66 -18.64 852.89C-18.82 853.12 -18.91 853.53 -18.91 854.11C-18.91 854.17 -18.91 854.5 -18.91 855.09L-16.13 855.09L-16.13 858.33L-18.91 858.33L-18.91 869.26L-22.15 869.26L-22.15 858.33L-23.77 858.33L-23.77 855.09L-22.15 855.09C-22.15 854.5 -22.15 854.17 -22.15 854.11C-22.15 852.57 -21.85 851.42 -21.23 850.68C-20.62 849.94 -19.66 849.57 -18.36 849.57C-18.03 849.57 -17.21 849.57 -15.89 849.57Z" id="d4tPSmB0v"></path><path d="M-6.94 858.95C-7.23 858.77 -7.51 858.63 -7.8 858.54C-8.07 858.45 -8.35 858.4 -8.64 858.4C-9.47 858.4 -10.12 858.77 -10.56 859.53C-11.01 860.27 -11.24 861.33 -11.24 862.72C-11.24 863.16 -11.24 865.33 -11.24 869.26L-14.48 869.26L-14.48 855.09L-11.24 855.09C-11.24 856.48 -11.24 857.26 -11.24 857.42C-10.82 856.49 -10.35 855.82 -9.81 855.39C-9.26 854.96 -8.61 854.74 -7.86 854.74C-7.75 854.74 -7.63 854.75 -7.51 854.77C-7.38 854.78 -7.19 854.81 -6.95 854.84C-6.95 855.66 -6.94 858.13 -6.94 858.95Z" id="c3wBkHeCRS"></path><path d="M-2.14 859.06C-2.52 859.79 -2.71 860.83 -2.71 862.19C-2.71 863.54 -2.52 864.59 -2.14 865.31C-1.76 866.02 -1.22 866.38 -0.5 866.38C0.21 866.38 0.75 866.02 1.12 865.31C1.5 864.59 1.69 863.54 1.69 862.19C1.69 860.83 1.5 859.79 1.12 859.06C0.75 858.34 0.21 857.98 -0.5 857.98C-1.22 857.98 -1.76 858.34 -2.14 859.06ZM3.6 856.72C4.58 858.03 5.07 859.85 5.07 862.19C5.07 864.51 4.58 866.33 3.6 867.65C2.62 868.96 1.25 869.62 -0.5 869.62C-2.25 869.62 -3.62 868.96 -4.61 867.65C-5.6 866.33 -6.09 864.51 -6.09 862.19C-6.09 859.85 -5.6 858.03 -4.61 856.72C-3.62 855.4 -2.25 854.74 -0.5 854.74C1.25 854.74 2.62 855.4 3.6 856.72Z" id="aaGK4Y4mF"></path><path d="M18.3 855.43C18.86 854.97 19.48 854.74 20.16 854.74C21.33 854.74 22.22 855.25 22.83 856.26C23.44 857.26 23.75 858.72 23.75 860.62C23.75 861.2 23.75 864.08 23.75 869.26L20.48 869.26L20.48 861.87C20.48 861.67 20.48 861.56 20.48 861.54C20.49 861.41 20.49 861.24 20.49 861.01C20.49 860.01 20.39 859.29 20.17 858.85C19.97 858.39 19.63 858.17 19.16 858.17C18.54 858.17 18.06 858.52 17.73 859.24C17.39 859.94 17.22 860.96 17.21 862.3C17.21 862.77 17.21 865.08 17.21 869.26L13.95 869.26C13.95 864.82 13.95 862.36 13.95 861.87C13.95 860.3 13.85 859.29 13.66 858.85C13.46 858.39 13.12 858.17 12.62 858.17C12 858.17 11.52 858.52 11.18 859.24C10.84 859.94 10.67 860.96 10.67 862.29C10.67 862.75 10.67 865.07 10.67 869.26L7.41 869.26L7.41 855.09L10.67 855.09C10.67 856.33 10.67 857.02 10.67 857.16C11.07 856.36 11.53 855.75 12.04 855.35C12.56 854.94 13.13 854.74 13.75 854.74C14.45 854.74 15.08 854.98 15.61 855.45C16.15 855.92 16.56 856.59 16.84 857.44C17.24 856.57 17.73 855.9 18.3 855.43Z" id="d1tf8TLEHp"></path><path d="M36.78 851.07L36.78 855.09L40.13 855.09L40.13 858.33L36.78 858.33C36.78 861.94 36.78 863.94 36.78 864.34C36.78 865 36.88 865.44 37.06 865.67C37.25 865.9 37.62 866.02 38.17 866.02C38.28 866.02 38.84 866.02 39.84 866.02L39.84 869.26C38.17 869.26 37.25 869.26 37.06 869.26C35.78 869.26 34.87 868.89 34.33 868.14C33.79 867.39 33.53 866.13 33.53 864.34C33.53 863.94 33.53 861.94 33.53 858.33L31.92 858.33L31.92 855.09L33.53 855.09L33.53 851.07L36.78 851.07Z" id="c11Z0MFo7"></path><path d="M52.32 869.26L49.05 869.26C49.05 865.31 49.05 863.12 49.05 862.68C49.05 861.43 49.03 860.58 48.99 860.12C48.95 859.66 48.88 859.32 48.78 859.09C48.66 858.8 48.49 858.58 48.27 858.41C48.05 858.25 47.81 858.17 47.53 858.17C46.85 858.17 46.32 858.54 45.94 859.27C45.55 859.99 45.36 861 45.36 862.29C45.36 862.75 45.36 865.07 45.36 869.26L42.11 869.26L42.11 849.57L45.36 849.57C45.36 854.12 45.36 856.65 45.36 857.16C45.85 856.34 46.36 855.73 46.91 855.33C47.46 854.94 48.07 854.74 48.73 854.74C49.91 854.74 50.8 855.25 51.41 856.26C52.01 857.26 52.32 858.72 52.32 860.63C52.32 860.63 52.32 863.5 52.32 869.26Z" id="avFK2BUz4"></path><path d="M65.46 863.43C60.91 863.43 58.37 863.43 57.87 863.43C57.95 864.49 58.23 865.29 58.7 865.82C59.17 866.35 59.83 866.61 60.68 866.61C61.36 866.61 62.06 866.47 62.77 866.19C63.49 865.9 64.22 865.48 64.98 864.9C64.98 865.25 64.98 868.04 64.98 868.39C64.21 868.79 63.44 869.1 62.68 869.3C61.91 869.51 61.14 869.62 60.38 869.62C58.54 869.62 57.11 868.97 56.09 867.67C55.07 866.36 54.56 864.54 54.56 862.19C54.56 859.87 55.06 858.06 56.07 856.74C57.07 855.41 58.44 854.74 60.19 854.74C61.78 854.74 63.06 855.42 64.02 856.76C64.98 858.11 65.46 859.89 65.46 862.13C65.46 862.13 65.46 862.56 65.46 863.43ZM62.13 860.63C62.13 859.77 61.95 859.08 61.59 858.56C61.23 858.03 60.76 857.76 60.18 857.76C59.55 857.76 59.04 858.01 58.65 858.5C58.25 858.99 58.01 859.7 57.91 860.63C58.75 860.63 61.28 860.63 62.13 860.63Z" id="b2YUdZ1peA"></path><path d="M74.53 850.38L78.43 850.38L83.35 863.33L83.35 850.38L86.65 850.38L86.65 869.26L82.76 869.26L77.83 856.3L77.83 869.26L74.53 869.26L74.53 850.38Z" id="aRs44jK0q"></path><path d="M93.1 859.06C92.72 859.79 92.53 860.83 92.53 862.19C92.53 863.54 92.72 864.59 93.1 865.31C93.48 866.02 94.03 866.38 94.75 866.38C95.45 866.38 95.99 866.02 96.37 865.31C96.74 864.59 96.94 863.54 96.94 862.19C96.94 860.83 96.74 859.79 96.37 859.06C95.99 858.34 95.45 857.98 94.75 857.98C94.03 857.98 93.48 858.34 93.1 859.06ZM98.84 856.72C99.82 858.03 100.31 859.85 100.31 862.19C100.31 864.51 99.82 866.33 98.84 867.65C97.86 868.96 96.5 869.62 94.75 869.62C92.99 869.62 91.62 868.96 90.64 867.65C89.65 866.33 89.16 864.51 89.16 862.19C89.16 859.85 89.65 858.03 90.64 856.72C91.62 855.4 92.99 854.74 94.75 854.74C96.5 854.74 97.86 855.4 98.84 856.72Z" id="cppBUPEX"></path><path d="M102.56 855.09L105.83 855.09C105.83 855.94 105.83 856.41 105.83 856.5C105.83 857.28 105.82 858.24 105.82 859.4C105.81 860.55 105.81 861.33 105.81 861.71C105.81 862.86 105.83 863.68 105.87 864.18C105.92 864.68 105.99 865.05 106.09 865.27C106.22 865.57 106.4 865.8 106.62 865.96C106.83 866.12 107.07 866.19 107.35 866.19C108.03 866.19 108.56 865.83 108.95 865.11C109.33 864.38 109.53 863.38 109.53 862.09C109.53 861.62 109.53 859.29 109.53 855.09L112.77 855.09L112.77 869.26L109.53 869.26C109.53 868.02 109.53 867.34 109.53 867.2C109.03 868.03 108.52 868.64 107.97 869.04C107.43 869.42 106.82 869.62 106.16 869.62C104.99 869.62 104.1 869.12 103.49 868.11C102.87 867.11 102.56 865.65 102.56 863.73C102.56 863.73 102.56 860.85 102.56 855.09Z" id="ckntqOQfu"></path><path d="M126.1 869.26L122.84 869.26C122.84 865.29 122.84 863.09 122.84 862.65C122.84 861.43 122.82 860.58 122.77 860.12C122.73 859.66 122.66 859.32 122.57 859.09C122.44 858.8 122.27 858.58 122.05 858.41C121.83 858.25 121.59 858.17 121.31 858.17C120.63 858.17 120.1 858.54 119.72 859.27C119.33 859.99 119.14 861 119.14 862.29C119.14 862.75 119.14 865.07 119.14 869.26L115.9 869.26L115.9 855.09L119.14 855.09C119.14 856.33 119.14 857.02 119.14 857.16C119.63 856.34 120.15 855.73 120.69 855.33C121.24 854.94 121.85 854.74 122.52 854.74C123.69 854.74 124.58 855.25 125.19 856.26C125.79 857.26 126.1 858.72 126.1 860.63C126.1 860.63 126.1 863.5 126.1 869.26Z" id="b4iko1eE6Y"></path><path d="M135.72 850.38C139.19 850.38 141.12 850.38 141.51 850.38C143.23 850.38 144.55 850.91 145.47 851.98C146.39 853.04 146.86 854.56 146.86 856.53C146.86 858.51 146.39 860.03 145.47 861.1C144.55 862.17 143.23 862.71 141.51 862.71C141.36 862.71 140.59 862.71 139.2 862.71L139.2 869.26L135.72 869.26L135.72 850.38ZM139.2 853.9L139.2 859.18C140.36 859.18 141.01 859.18 141.14 859.18C141.81 859.18 142.33 858.95 142.7 858.49C143.07 858.02 143.26 857.37 143.26 856.53C143.26 855.69 143.07 855.04 142.7 854.58C142.33 854.13 141.81 853.9 141.14 853.9C140.88 853.9 140.23 853.9 139.2 853.9Z" id="b7QsiJJPC6"></path><path d="M156.72 858.95C156.43 858.77 156.15 858.63 155.86 858.54C155.59 858.45 155.31 858.4 155.03 858.4C154.19 858.4 153.55 858.77 153.1 859.53C152.65 860.27 152.42 861.33 152.42 862.72C152.42 863.16 152.42 865.33 152.42 869.26L149.18 869.26L149.18 855.09L152.42 855.09C152.42 856.48 152.42 857.26 152.42 857.42C152.84 856.49 153.32 855.82 153.85 855.39C154.4 854.96 155.05 854.74 155.8 854.74C155.91 854.74 156.03 854.75 156.15 854.77C156.28 854.78 156.47 854.81 156.71 854.84C156.72 855.66 156.72 858.13 156.72 858.95Z" id="e4QrYXTZ4"></path><path d="M161.52 859.06C161.14 859.79 160.95 860.83 160.95 862.19C160.95 863.54 161.14 864.59 161.52 865.31C161.89 866.02 162.44 866.38 163.16 866.38C163.87 866.38 164.41 866.02 164.78 865.31C165.16 864.59 165.35 863.54 165.35 862.19C165.35 860.83 165.16 859.79 164.78 859.06C164.41 858.34 163.87 857.98 163.16 857.98C162.44 857.98 161.89 858.34 161.52 859.06ZM167.26 856.72C168.23 858.03 168.73 859.85 168.73 862.19C168.73 864.51 168.23 866.33 167.26 867.65C166.27 868.96 164.91 869.62 163.16 869.62C161.41 869.62 160.04 868.96 159.05 867.65C158.06 866.33 157.57 864.51 157.57 862.19C157.57 859.85 158.06 858.03 159.05 856.72C160.04 855.4 161.41 854.74 163.16 854.74C164.91 854.74 166.27 855.4 167.26 856.72Z" id="c6cB7kR6eh"></path><path d="M171.09 855.09L174.33 855.09C174.33 863.43 174.33 868.07 174.33 869C174.33 870.89 174.01 872.34 173.35 873.35C172.7 874.35 171.75 874.85 170.51 874.85C170.4 874.85 169.87 874.85 168.91 874.85L168.91 871.87C169.25 871.87 169.44 871.87 169.48 871.87C170.09 871.87 170.51 871.68 170.74 871.29C170.97 870.91 171.09 870.14 171.09 869C171.09 867.14 171.09 862.51 171.09 855.09ZM171.09 849.57L174.33 849.57L174.33 853.27L171.09 853.27L171.09 849.57Z" id="a6SahfUgll"></path><path d="M187.59 863.43C183.03 863.43 180.5 863.43 179.99 863.43C180.08 864.49 180.35 865.29 180.82 865.82C181.29 866.35 181.95 866.61 182.8 866.61C183.48 866.61 184.18 866.47 184.89 866.19C185.61 865.9 186.35 865.48 187.1 864.9C187.1 865.25 187.1 868.04 187.1 868.39C186.33 868.79 185.57 869.1 184.8 869.3C184.03 869.51 183.27 869.62 182.5 869.62C180.66 869.62 179.23 868.97 178.21 867.67C177.2 866.36 176.69 864.54 176.69 862.19C176.69 859.87 177.19 858.06 178.19 856.74C179.19 855.41 180.57 854.74 182.31 854.74C183.91 854.74 185.19 855.42 186.15 856.76C187.11 858.11 187.59 859.89 187.59 862.13C187.59 862.13 187.59 862.56 187.59 863.43ZM184.25 860.63C184.25 859.77 184.07 859.08 183.71 858.56C183.35 858.03 182.88 857.76 182.3 857.76C181.67 857.76 181.16 858.01 180.77 858.5C180.38 858.99 180.13 859.7 180.03 860.63C180.88 860.63 183.41 860.63 184.25 860.63Z" id="a19ynfpxuO"></path><path d="M198.24 859.22C197.81 858.8 197.36 858.49 196.92 858.28C196.47 858.08 196.02 857.98 195.54 857.98C194.63 857.98 193.93 858.35 193.41 859.09C192.91 859.83 192.66 860.86 192.66 862.19C192.66 863.51 192.91 864.54 193.41 865.28C193.93 866.01 194.63 866.38 195.54 866.38C196.04 866.38 196.52 866.28 196.98 866.08C197.43 865.87 197.85 865.55 198.24 865.14C198.24 865.51 198.24 868.47 198.24 868.84C197.74 869.1 197.22 869.29 196.7 869.42C196.18 869.55 195.66 869.62 195.12 869.62C193.29 869.62 191.86 868.96 190.82 867.65C189.79 866.34 189.28 864.52 189.28 862.19C189.28 859.84 189.79 858.02 190.82 856.71C191.86 855.4 193.29 854.74 195.12 854.74C195.66 854.74 196.18 854.81 196.7 854.94C197.22 855.07 197.73 855.27 198.24 855.54C198.24 855.54 198.24 858.85 198.24 859.22Z" id="aqBznD0iH"></path><path d="M204.59 851.07L204.59 855.09L207.94 855.09L207.94 858.33L204.59 858.33C204.59 861.94 204.59 863.94 204.59 864.34C204.59 865 204.69 865.44 204.87 865.67C205.06 865.9 205.43 866.02 205.98 866.02C206.09 866.02 206.65 866.02 207.65 866.02L207.65 869.26C205.98 869.26 205.06 869.26 204.87 869.26C203.59 869.26 202.68 868.89 202.14 868.14C201.6 867.39 201.34 866.13 201.34 864.34C201.34 863.94 201.34 861.94 201.34 858.33L199.73 858.33L199.73 855.09L201.34 855.09L201.34 851.07L204.59 851.07Z" id="b6HQtm6HbH"></path></defs><g><g><g><use xlink:href="#bvCk1QwLU" opacity="1" fill="#000000" fill-opacity="1"></use><g><use xlink:href="#bvCk1QwLU" opacity="1" fill-opacity="0" stroke="#000000" stroke-width="1" stroke-opacity="0"></use></g></g><g><use xlink:href="#adjbgTrxq" opacity="1" fill="#000000" fill-opacity="1"></use><g><use xlink:href="#adjbgTrxq" opacity="1" fill-opacity="0" stroke="#000000" stroke-width="1" stroke-opacity="0"></use></g></g><g><use xlink:href="#e91OF8GTE" opacity="1" fill="#000000" fill-opacity="1"></use><g><use xlink:href="#e91OF8GTE" opacity="1" fill-opacity="0" stroke="#000000" stroke-width="1" stroke-opacity="0"></use></g></g><g><use xlink:href="#eE9KPlFGU" opacity="1" fill="#000000" fill-opacity="1"></use><g><use xlink:href="#eE9KPlFGU" opacity="1" fill-opacity="0" stroke="#000000" stroke-width="1" stroke-opacity="0"></use></g></g><g><use xlink:href="#b7yAiRNMEf" opacity="1" fill="#000000" fill-opacity="1"></use><g><use xlink:href="#b7yAiRNMEf" opacity="1" fill-opacity="0" stroke="#000000" stroke-width="1" stroke-opacity="0"></use></g></g><g><use xlink:href="#a11mA3cbZG" opacity="1" fill="#000000" fill-opacity="1"></use><g><use xlink:href="#a11mA3cbZG" opacity="1" fill-opacity="0" stroke="#000000" stroke-width="1" stroke-opacity="0"></use></g></g><g><use xlink:href="#d18ko3Imrb" opacity="1" fill="#000000" fill-opacity="1"></use><g><use xlink:href="#d18ko3Imrb" opacity="1" fill-opacity="0" stroke="#000000" stroke-width="1" stroke-opacity="0"></use></g></g><g><use xlink:href="#b11IWtIn1d" opacity="1" fill="#000000" fill-opacity="1"></use><g><use xlink:href="#b11IWtIn1d" opacity="1" fill-opacity="0" stroke="#000000" stroke-width="1" stroke-opacity="0"></use></g></g><g><use xlink:href="#a1ycZvudDu" opacity="1" fill="#000000" fill-opacity="1"></use><g><use xlink:href="#a1ycZvudDu" opacity="1" fill-opacity="0" stroke="#000000" stroke-width="1" stroke-opacity="0"></use></g></g><g><use xlink:href="#atID8fAz" opacity="1" fill="#000000" fill-opacity="1"></use><g><use xlink:href="#atID8fAz" opacity="1" fill-opacity="0" stroke="#000000" stroke-width="1" stroke-opacity="0"></use></g></g><g><use xlink:href="#b2UbThXP0" opacity="1" fill="#000000" fill-opacity="1"></use><g><use xlink:href="#b2UbThXP0" opacity="1" fill-opacity="0" stroke="#000000" stroke-width="1" stroke-opacity="0"></use></g></g><g><use xlink:href="#afF2EWsq4" opacity="1" fill="#000000" fill-opacity="1"></use><g><use xlink:href="#afF2EWsq4" opacity="1" fill-opacity="0" stroke="#000000" stroke-width="1" stroke-opacity="0"></use></g></g><g><use xlink:href="#bL7B47jME" opacity="1" fill="#000000" fill-opacity="1"></use><g><use xlink:href="#bL7B47jME" opacity="1" fill-opacity="0" stroke="#000000" stroke-width="1" stroke-opacity="0"></use></g></g><g><use xlink:href="#b2jVD60oq" opacity="1" fill="#000000" fill-opacity="1"></use><g><use xlink:href="#b2jVD60oq" opacity="1" fill-opacity="0" stroke="#000000" stroke-width="1" stroke-opacity="0"></use></g></g><g><use xlink:href="#bSj15MQXb" opacity="1" fill="#000000" fill-opacity="1"></use><g><use xlink:href="#bSj15MQXb" opacity="1" fill-opacity="0" stroke="#000000" stroke-width="1" stroke-opacity="0"></use></g></g><g><use xlink:href="#apgHyOk1" opacity="1" fill="#000000" fill-opacity="1"></use><g><use xlink:href="#apgHyOk1" opacity="1" fill-opacity="0" stroke="#000000" stroke-width="1" stroke-opacity="0"></use></g></g><g><use xlink:href="#a2nua46eSu" opacity="1" fill="#000000" fill-opacity="1"></use><g><use xlink:href="#a2nua46eSu" opacity="1" fill-opacity="0" stroke="#000000" stroke-width="1" stroke-opacity="0"></use></g></g><g><use xlink:href="#faynGsfzE" opacity="1" fill="#000000" fill-opacity="1"></use><g><use xlink:href="#faynGsfzE" opacity="1" fill-opacity="0" stroke="#000000" stroke-width="1" stroke-opacity="0"></use></g></g><g><use xlink:href="#e1RQgDOuZ" opacity="1" fill="#000000" fill-opacity="1"></use><g><use xlink:href="#e1RQgDOuZ" opacity="1" fill-opacity="0" stroke="#000000" stroke-width="1" stroke-opacity="0"></use></g></g><g><use xlink:href="#czuBDR549" opacity="1" fill="#000000" fill-opacity="1"></use><g><use xlink:href="#czuBDR549" opacity="1" fill-opacity="0" stroke="#000000" stroke-width="1" stroke-opacity="0"></use></g></g><g><use xlink:href="#baBbdoXy" opacity="1" fill="#000000" fill-opacity="1"></use><g><use xlink:href="#baBbdoXy" opacity="1" fill-opacity="0" stroke="#000000" stroke-width="1" stroke-opacity="0"></use></g></g><g><use xlink:href="#a1DixGEeHb" opacity="1" fill="#000000" fill-opacity="1"></use><g><use xlink:href="#a1DixGEeHb" opacity="1" fill-opacity="0" stroke="#000000" stroke-width="1" stroke-opacity="0"></use></g></g><g><use xlink:href="#a2J95sislI" opacity="1" fill="#000000" fill-opacity="1"></use><g><use xlink:href="#a2J95sislI" opacity="1" fill-opacity="0" stroke="#000000" stroke-width="1" stroke-opacity="0"></use></g></g><g><use xlink:href="#c3hUobMSK" opacity="1" fill="#000000" fill-opacity="1"></use><g><use xlink:href="#c3hUobMSK" opacity="1" fill-opacity="0" stroke="#000000" stroke-width="1" stroke-opacity="0"></use></g></g><g><use xlink:href="#cvefzL2J" opacity="1" fill="#000000" fill-opacity="1"></use><g><use xlink:href="#cvefzL2J" opacity="1" fill-opacity="0" stroke="#000000" stroke-width="1" stroke-opacity="0"></use></g></g><g><use xlink:href="#d1FcIL887U" opacity="1" fill="#000000" fill-opacity="1"></use><g><use xlink:href="#d1FcIL887U" opacity="1" fill-opacity="0" stroke="#000000" stroke-width="1" stroke-opacity="0"></use></g></g><g><use xlink:href="#e35LyT3sd" opacity="1" fill="#000000" fill-opacity="1"></use><g><use xlink:href="#e35LyT3sd" opacity="1" fill-opacity="0" stroke="#000000" stroke-width="1" stroke-opacity="0"></use></g></g><g><use xlink:href="#e75f3dF2Z" opacity="1" fill="#000000" fill-opacity="1"></use><g><use xlink:href="#e75f3dF2Z" opacity="1" fill-opacity="0" stroke="#000000" stroke-width="1" stroke-opacity="0"></use></g></g><g><use xlink:href="#aB7L6pIEF" opacity="1" fill="#000000" fill-opacity="1"></use><g><use xlink:href="#aB7L6pIEF" opacity="1" fill-opacity="0" stroke="#000000" stroke-width="1" stroke-opacity="0"></use></g></g><g><use xlink:href="#g2PJNyIUyB" opacity="1" fill="#000000" fill-opacity="1"></use><g><use xlink:href="#g2PJNyIUyB" opacity="1" fill-opacity="0" stroke="#000000" stroke-width="1" stroke-opacity="0"></use></g></g><g><use xlink:href="#ayj2uVRRF" opacity="1" fill="#000000" fill-opacity="1"></use><g><use xlink:href="#ayj2uVRRF" opacity="1" fill-opacity="0" stroke="#000000" stroke-width="1" stroke-opacity="0"></use></g></g><g><use xlink:href="#b4qwYHhS6" opacity="1" fill="#000000" fill-opacity="1"></use><g><use xlink:href="#b4qwYHhS6" opacity="1" fill-opacity="0" stroke="#000000" stroke-width="1" stroke-opacity="0"></use></g></g><g><use xlink:href="#d4tPSmB0v" opacity="1" fill="#000000" fill-opacity="1"></use><g><use xlink:href="#d4tPSmB0v" opacity="1" fill-opacity="0" stroke="#000000" stroke-width="1" stroke-opacity="0"></use></g></g><g><use xlink:href="#c3wBkHeCRS" opacity="1" fill="#000000" fill-opacity="1"></use><g><use xlink:href="#c3wBkHeCRS" opacity="1" fill-opacity="0" stroke="#000000" stroke-width="1" stroke-opacity="0"></use></g></g><g><use xlink:href="#aaGK4Y4mF" opacity="1" fill="#000000" fill-opacity="1"></use><g><use xlink:href="#aaGK4Y4mF" opacity="1" fill-opacity="0" stroke="#000000" stroke-width="1" stroke-opacity="0"></use></g></g><g><use xlink:href="#d1tf8TLEHp" opacity="1" fill="#000000" fill-opacity="1"></use><g><use xlink:href="#d1tf8TLEHp" opacity="1" fill-opacity="0" stroke="#000000" stroke-width="1" stroke-opacity="0"></use></g></g><g><use xlink:href="#c11Z0MFo7" opacity="1" fill="#000000" fill-opacity="1"></use><g><use xlink:href="#c11Z0MFo7" opacity="1" fill-opacity="0" stroke="#000000" stroke-width="1" stroke-opacity="0"></use></g></g><g><use xlink:href="#avFK2BUz4" opacity="1" fill="#000000" fill-opacity="1"></use><g><use xlink:href="#avFK2BUz4" opacity="1" fill-opacity="0" stroke="#000000" stroke-width="1" stroke-opacity="0"></use></g></g><g><use xlink:href="#b2YUdZ1peA" opacity="1" fill="#000000" fill-opacity="1"></use><g><use xlink:href="#b2YUdZ1peA" opacity="1" fill-opacity="0" stroke="#000000" stroke-width="1" stroke-opacity="0"></use></g></g><g><use xlink:href="#aRs44jK0q" opacity="1" fill="#000000" fill-opacity="1"></use><g><use xlink:href="#aRs44jK0q" opacity="1" fill-opacity="0" stroke="#000000" stroke-width="1" stroke-opacity="0"></use></g></g><g><use xlink:href="#cppBUPEX" opacity="1" fill="#000000" fill-opacity="1"></use><g><use xlink:href="#cppBUPEX" opacity="1" fill-opacity="0" stroke="#000000" stroke-width="1" stroke-opacity="0"></use></g></g><g><use xlink:href="#ckntqOQfu" opacity="1" fill="#000000" fill-opacity="1"></use><g><use xlink:href="#ckntqOQfu" opacity="1" fill-opacity="0" stroke="#000000" stroke-width="1" stroke-opacity="0"></use></g></g><g><use xlink:href="#b4iko1eE6Y" opacity="1" fill="#000000" fill-opacity="1"></use><g><use xlink:href="#b4iko1eE6Y" opacity="1" fill-opacity="0" stroke="#000000" stroke-width="1" stroke-opacity="0"></use></g></g><g><use xlink:href="#b7QsiJJPC6" opacity="1" fill="#000000" fill-opacity="1"></use><g><use xlink:href="#b7QsiJJPC6" opacity="1" fill-opacity="0" stroke="#000000" stroke-width="1" stroke-opacity="0"></use></g></g><g><use xlink:href="#e4QrYXTZ4" opacity="1" fill="#000000" fill-opacity="1"></use><g><use xlink:href="#e4QrYXTZ4" opacity="1" fill-opacity="0" stroke="#000000" stroke-width="1" stroke-opacity="0"></use></g></g><g><use xlink:href="#c6cB7kR6eh" opacity="1" fill="#000000" fill-opacity="1"></use><g><use xlink:href="#c6cB7kR6eh" opacity="1" fill-opacity="0" stroke="#000000" stroke-width="1" stroke-opacity="0"></use></g></g><g><use xlink:href="#a6SahfUgll" opacity="1" fill="#000000" fill-opacity="1"></use><g><use xlink:href="#a6SahfUgll" opacity="1" fill-opacity="0" stroke="#000000" stroke-width="1" stroke-opacity="0"></use></g></g><g><use xlink:href="#a19ynfpxuO" opacity="1" fill="#000000" fill-opacity="1"></use><g><use xlink:href="#a19ynfpxuO" opacity="1" fill-opacity="0" stroke="#000000" stroke-width="1" stroke-opacity="0"></use></g></g><g><use xlink:href="#aqBznD0iH" opacity="1" fill="#000000" fill-opacity="1"></use><g><use xlink:href="#aqBznD0iH" opacity="1" fill-opacity="0" stroke="#000000" stroke-width="1" stroke-opacity="0"></use></g></g><g><use xlink:href="#b6HQtm6HbH" opacity="1" fill="#000000" fill-opacity="1"></use><g><use xlink:href="#b6HQtm6HbH" opacity="1" fill-opacity="0" stroke="#000000" stroke-width="1" stroke-opacity="0"></use></g></g></g></g></svg>